<svg version="1.0" xmlns="http://www.w3.org/2000/svg"
 width="900.000000pt" height="900.000000pt" viewBox="0 0 900.000000 900.000000"
 preserveAspectRatio="xMidYMid meet">
<g transform="translate(0.000000,900.000000) scale(0.100000,-0.100000)"
fill="white" stroke="none">
<path d="M4098 7035 c-2 -2 -39 -6 -83 -9 -179 -13 -436 -66 -469 -97 -6 -5
-24 -9 -40 -10 -17 0 -62 -18 -101 -40 -38 -21 -79 -43 -90 -48 -11 -5 -37
-21 -58 -35 -21 -14 -41 -26 -44 -26 -4 0 -14 -6 -22 -14 -21 -18 -130 -76
-145 -76 -6 -1 -27 -14 -46 -30 -19 -17 -39 -30 -46 -30 -6 0 -19 -9 -29 -20
-10 -11 -24 -20 -30 -20 -7 0 -15 -7 -19 -15 -3 -8 -13 -15 -22 -15 -19 0 -90
-77 -119 -129 -11 -20 -25 -42 -32 -48 -44 -48 -224 -388 -258 -487 -9 -27
-22 -61 -30 -75 -7 -14 -23 -55 -35 -91 -12 -36 -25 -74 -30 -85 -14 -34 -49
-206 -54 -275 -9 -103 11 -314 39 -420 31 -117 229 -520 256 -520 14 0 11 58
-6 89 -25 48 -7 41 63 -25 74 -72 86 -100 97 -234 4 -41 13 -101 21 -133 9
-33 15 -112 16 -188 1 -111 3 -131 18 -139 18 -10 40 5 40 27 0 7 4 13 9 13 8
0 13 -34 27 -175 2 -16 7 -63 12 -104 11 -97 6 -126 -24 -140 -34 -15 -30 -46
9 -70 28 -17 36 -30 46 -78 7 -32 17 -62 21 -68 13 -19 49 -150 53 -199 3 -27
11 -52 18 -56 16 -11 39 -1 39 16 0 30 19 12 36 -33 28 -78 55 -134 98 -203
47 -74 58 -96 120 -236 46 -107 132 -226 183 -255 15 -9 62 -24 103 -34 41 -9
98 -23 125 -31 56 -17 155 -26 295 -28 71 -1 102 3 125 16 47 26 138 41 208
36 36 -3 70 -9 76 -12 7 -5 11 -43 11 -102 0 -58 4 -94 10 -94 12 0 14 5 31
89 8 35 20 66 27 68 17 7 52 -25 52 -47 0 -16 19 -30 40 -30 22 0 30 40 19 87
-19 82 -36 109 -93 147 -30 20 -57 44 -60 54 -4 10 -20 31 -36 47 -24 23 -41
29 -87 33 -49 3 -64 0 -93 -20 -45 -31 -49 -71 -7 -76 18 -2 29 2 33 13 14 34
84 41 84 8 0 -8 14 -27 31 -43 20 -18 30 -34 26 -44 -8 -20 -37 -21 -37 -2 0
27 -45 70 -65 62 -17 -6 -17 -7 1 -21 17 -13 17 -16 4 -25 -21 -15 -68 -6
-131 24 -57 26 -104 43 -204 71 -33 9 -73 23 -90 30 -16 7 -56 23 -88 34 -78
28 -184 78 -192 91 -3 5 -15 10 -25 10 -49 0 -277 235 -342 353 -10 17 -24 35
-32 39 -21 12 -83 142 -101 211 -8 31 -12 70 -8 87 5 27 3 31 -13 28 -24 -4
-44 37 -61 125 -7 37 -20 100 -29 140 -8 39 -22 115 -29 167 -7 52 -19 115
-25 140 -6 25 -12 100 -12 167 0 99 -3 125 -14 131 -17 9 -17 11 -34 151 -11
89 -10 94 9 115 21 22 21 23 2 40 -16 15 -19 39 -26 219 -5 137 -12 214 -22
238 -12 32 -12 41 1 80 26 73 17 125 -19 117 -34 -6 -44 -86 -45 -345 0 -134
-4 -243 -9 -243 -17 0 -23 92 -23 361 0 148 -4 269 -8 269 -24 0 -35 -138 -31
-402 2 -164 0 -198 -12 -198 -20 0 -120 118 -140 165 -16 40 -29 126 -47 320
-11 117 -11 97 0 385 5 124 13 248 19 275 5 28 10 73 10 102 1 28 6 55 11 58
6 3 10 22 10 41 0 19 9 51 20 71 11 21 20 43 20 50 0 6 11 33 25 59 25 47 33
94 16 94 -5 0 -12 -10 -16 -22 -6 -21 -8 -21 -12 -4 -3 10 -1 21 4 25 6 3 13
18 17 34 7 28 26 38 26 12 0 -8 5 -15 10 -15 6 0 8 15 4 39 -4 24 -2 41 5 45
6 4 11 16 11 27 0 11 7 22 15 25 8 4 15 17 15 30 0 14 16 43 38 67 62 70 172
177 182 177 6 0 18 -9 27 -20 22 -26 53 -26 53 -1 0 10 -7 21 -15 25 -22 8
-18 19 12 34 39 18 57 16 48 -5 -4 -10 -10 -28 -13 -41 -2 -13 -11 -26 -18
-29 -8 -3 -14 -14 -14 -25 0 -11 -11 -34 -24 -51 -31 -42 -96 -169 -96 -188 0
-8 -5 -20 -11 -26 -12 -12 -23 -56 -39 -162 -6 -36 -14 -69 -19 -75 -13 -17
-28 -145 -23 -198 5 -60 21 -63 24 -5 3 93 7 121 17 141 5 11 12 44 14 71 7
76 127 391 168 438 5 7 30 40 55 75 25 34 56 67 70 72 14 6 30 23 35 39 19 54
91 96 278 161 142 49 211 65 366 86 53 7 85 24 85 44 0 15 19 19 124 30 76 8
143 9 173 4 26 -4 55 -8 63 -9 8 -1 28 -7 43 -13 16 -7 35 -12 42 -12 8 0 30
-13 48 -30 19 -16 42 -30 50 -30 9 0 19 -9 22 -21 9 -28 30 -18 30 14 1 14 4
29 7 32 21 22 256 41 478 39 142 0 431 -55 525 -98 159 -74 151 -70 237 -133
57 -43 78 -52 78 -33 0 17 -78 86 -155 139 -56 38 -158 91 -175 91 -7 0 -26 6
-43 14 -18 8 -54 19 -82 25 -27 7 -79 20 -115 30 -120 35 -275 45 -469 31
-104 -7 -184 -18 -200 -26 -14 -8 -36 -14 -47 -14 -12 0 -28 -10 -37 -22 l-15
-23 -12 26 c-10 22 -21 28 -63 33 -28 4 -66 14 -86 23 -31 13 -232 28 -243 18z
m-1535 -1068 c-3 -5 -10 -4 -15 1 -6 6 -7 16 -3 22 6 9 9 9 16 -1 4 -7 5 -17
2 -22z m-32 -99 c-16 -38 -53 -197 -47 -206 2 -4 0 -39 -5 -77 -22 -153 -31
-451 -18 -580 5 -49 12 -124 16 -165 3 -41 11 -78 17 -82 6 -4 7 -10 3 -14 -4
-4 -14 -1 -22 7 -18 19 -75 162 -82 208 -3 20 -11 45 -16 56 -13 24 -38 325
-29 340 4 5 10 44 14 85 9 103 24 168 58 249 17 39 30 80 30 92 0 21 32 81 57
107 7 7 13 19 13 25 0 7 5 4 10 -5 7 -11 7 -25 1 -40z m924 -3423 c50 -45 50
-55 -2 -33 -36 15 -73 48 -73 65 0 24 24 13 75 -32z m398 -99 c18 -8 50 -18
72 -22 l40 -8 -43 -4 c-24 -2 -49 1 -55 6 -7 5 -29 12 -49 16 -21 4 -38 11
-38 16 0 14 37 12 73 -4z m-263 -48 c37 -9 41 -12 25 -19 -37 -14 -62 -9 -91
18 -29 26 -29 27 -4 19 14 -4 45 -12 70 -18z m130 -38 c11 -7 5 -10 -22 -10
-21 0 -38 5 -38 10 0 13 40 13 60 0z"/>
<path d="M3976 6911 c-7 -10 52 -37 61 -28 3 3 3 13 0 22 -7 16 -52 21 -61 6z"/>
<path d="M4833 6814 c-26 -7 -57 -13 -68 -14 -29 -1 -68 -37 -61 -55 6 -18 47
-14 124 11 63 20 263 18 405 -6 142 -23 239 -51 332 -95 39 -19 88 -41 109
-50 38 -15 87 -46 186 -118 48 -35 161 -151 225 -232 90 -111 112 -159 167
-357 6 -20 7 -45 3 -55 -6 -15 -9 -13 -21 15 -9 21 -21 32 -34 32 -27 0 -26
-23 4 -85 23 -48 41 -102 67 -208 14 -55 -3 -246 -27 -310 -8 -20 -14 -51 -14
-68 0 -35 -28 -127 -41 -135 -5 -3 -9 -13 -9 -23 0 -10 -20 -56 -45 -102 -25
-46 -53 -100 -63 -119 -9 -19 -40 -68 -67 -108 -28 -40 -56 -85 -64 -100 -8
-15 -19 -30 -24 -33 -5 -4 -7 -15 -3 -25 7 -18 9 -17 24 6 10 14 28 36 42 50
26 26 40 46 62 90 7 14 39 67 71 117 31 51 57 101 57 110 0 10 12 41 25 68 14
28 25 60 25 72 0 12 6 26 14 30 17 10 56 149 56 201 0 43 9 82 19 82 19 0 27
-80 26 -240 -4 -310 -34 -441 -123 -536 -78 -82 -227 -214 -271 -241 -22 -13
-41 -28 -41 -34 0 -5 -10 -9 -22 -9 -12 0 -29 -6 -37 -14 -32 -27 -127 -74
-179 -87 -58 -14 -85 -35 -59 -45 21 -8 126 0 210 16 93 18 104 4 32 -43 -30
-20 -64 -38 -74 -42 -10 -3 -24 -16 -31 -29 -7 -13 -24 -26 -39 -29 -113 -23
-140 -32 -190 -60 -31 -17 -58 -36 -60 -42 -2 -5 -17 -22 -33 -36 -23 -22 -25
-28 -12 -33 9 -4 30 6 52 24 20 16 44 30 53 30 10 0 31 8 47 17 27 15 40 16
122 6 152 -19 176 -46 165 -182 -6 -69 -14 -92 -61 -173 -21 -35 -79 -58 -149
-58 -36 0 -65 4 -65 9 0 13 107 111 121 111 7 0 20 -7 30 -16 16 -14 18 -14
29 5 13 24 0 55 -26 65 -10 4 -40 -1 -68 -10 -117 -39 -149 -68 -144 -132 2
-31 9 -40 36 -52 27 -13 32 -20 30 -44 -2 -22 -11 -34 -35 -45 -17 -9 -44 -36
-60 -60 -15 -25 -45 -65 -65 -90 -21 -25 -45 -60 -53 -77 -8 -18 -40 -64 -71
-104 -31 -40 -67 -91 -80 -114 -38 -68 -181 -359 -189 -386 -4 -14 -18 -48
-31 -77 -13 -28 -24 -59 -24 -68 0 -9 -5 -26 -12 -38 -12 -22 -21 -85 -34
-240 -7 -86 11 -246 31 -274 8 -10 19 -14 29 -10 15 6 17 16 12 65 -18 172
-18 207 -1 267 10 33 17 76 17 95 -1 19 2 44 7 55 4 11 23 58 41 105 18 47 38
99 45 115 97 231 120 281 130 290 7 5 15 17 19 25 3 8 3 -3 -1 -25 -7 -47 -7
-84 1 -92 14 -15 34 10 40 51 4 25 14 58 22 74 7 15 14 35 14 45 0 10 11 33
24 50 13 18 34 55 47 82 13 28 36 69 51 92 15 23 28 46 28 51 0 5 20 34 45 64
25 30 45 58 45 62 0 3 11 24 24 45 19 29 33 40 61 45 20 4 39 14 42 22 3 7 15
14 28 14 21 0 49 22 96 77 32 36 78 149 85 206 5 48 9 57 23 51 44 -18 50 -16
56 12 3 16 12 42 20 57 8 16 15 34 15 40 0 14 37 111 56 149 8 14 14 35 14 46
0 12 10 28 23 37 20 15 21 17 5 26 -24 13 -23 28 4 56 20 21 21 25 6 39 -15
15 -14 21 4 75 11 33 31 67 44 78 13 10 24 23 24 28 0 14 70 113 80 113 13 0
12 -72 0 -126 -5 -23 -16 -95 -25 -160 -17 -140 -50 -319 -65 -352 -5 -12 -13
-47 -16 -78 -4 -30 -11 -57 -15 -60 -5 -3 -9 -13 -9 -22 0 -38 33 18 66 114
31 88 43 138 74 319 5 28 14 68 19 90 6 22 11 65 11 95 0 30 5 71 10 90 5 19
14 82 19 140 5 65 18 129 32 168 19 51 21 66 11 82 -8 14 -12 102 -11 317 0
215 -3 307 -12 328 -7 17 -16 59 -20 95 -11 94 -28 188 -45 246 -15 54 -19
124 -6 124 17 -1 172 -231 172 -257 0 -10 4 -23 9 -28 46 -49 110 -337 112
-503 1 -51 5 -95 9 -97 12 -7 23 194 16 272 -4 38 -8 84 -10 103 -4 47 -15 98
-28 135 -23 63 -121 261 -144 292 -13 17 -24 35 -24 40 -1 4 -19 26 -40 48
-22 22 -40 43 -40 47 0 3 -6 13 -13 20 -7 7 -30 36 -52 63 -22 28 -60 72 -85
98 -25 27 -49 56 -54 65 -44 77 -222 255 -285 285 -9 4 -29 16 -46 27 -32 20
-157 83 -213 106 -18 7 -47 20 -65 28 -45 22 -109 37 -197 46 -41 5 -97 13
-124 18 -69 14 -305 11 -363 -4z m1207 -2429 c0 -29 -53 -73 -95 -79 l-40 -5
26 22 c14 12 36 29 48 37 13 8 30 20 39 27 22 16 22 16 22 -2z m20 -148 c0 -7
-16 -45 -35 -84 -19 -39 -35 -76 -35 -82 0 -6 -13 -41 -30 -78 -16 -36 -30
-74 -30 -84 0 -10 -4 -20 -9 -23 -10 -7 -21 16 -21 44 0 18 -50 67 -111 107
-29 20 -30 23 -13 28 50 16 154 86 203 138 44 45 81 61 81 34z"/>
<path d="M4141 6806 c-9 -10 -31 -13 -94 -9 -108 6 -294 -20 -320 -46 -6 -6
-19 -11 -29 -11 -21 0 -91 -35 -135 -67 -17 -12 -35 -23 -38 -23 -4 0 -24 -13
-45 -30 -21 -16 -41 -30 -44 -30 -10 0 -108 -71 -150 -109 -108 -97 -226 -225
-226 -245 0 -5 24 13 53 42 104 102 335 287 410 327 222 120 278 136 469 141
113 2 139 0 149 -13 7 -8 33 -24 57 -36 43 -20 45 -20 78 -2 53 28 44 46 -47
99 -52 29 -71 32 -88 12z"/>
<path d="M3583 6110 c-50 -23 -69 -39 -101 -87 -71 -106 -132 -248 -132 -311
0 -20 -11 -55 -26 -80 -24 -40 -25 -48 -13 -66 7 -12 17 -57 22 -101 12 -118
25 -216 32 -251 7 -34 -2 -45 -50 -61 -25 -8 -30 -15 -28 -39 1 -15 -5 -37
-15 -47 -24 -26 -86 -57 -99 -49 -7 5 -10 40 -8 100 3 84 -4 117 -20 92 -3 -5
-5 -44 -4 -87 0 -43 1 -97 1 -120 -1 -36 2 -42 21 -45 27 -4 36 -43 12 -52
-21 -8 -35 0 -35 20 0 8 -7 22 -15 32 -9 9 -42 53 -74 97 -32 44 -79 103 -106
130 -26 28 -56 69 -67 93 -19 43 -48 57 -48 23 0 -26 53 -125 91 -170 16 -20
39 -47 51 -61 32 -38 140 -177 166 -213 55 -77 65 -80 134 -47 23 11 50 20 59
20 10 0 24 9 32 20 16 24 87 33 94 13 3 -9 -9 -13 -41 -13 -36 0 -46 -4 -46
-16 0 -14 9 -16 58 -12 36 4 63 1 72 -6 15 -11 60 -71 60 -80 0 -2 -19 -6 -42
-9 -73 -8 -147 -34 -168 -59 -11 -12 -24 -39 -31 -58 -6 -19 -23 -55 -36 -79
-25 -43 -25 -47 -20 -195 3 -83 10 -167 16 -186 5 -19 18 -66 27 -103 10 -37
21 -70 26 -73 4 -3 8 -13 8 -23 0 -30 39 -70 94 -96 41 -19 69 -25 123 -25
l71 0 86 82 c47 45 86 89 86 99 0 9 7 22 15 29 8 7 17 27 21 46 3 19 10 37 15
40 12 7 11 45 -1 64 -7 12 -10 11 -16 -5 -3 -11 -22 -53 -41 -92 -37 -76 -118
-164 -168 -183 -69 -26 -180 -2 -219 48 -26 32 -56 116 -56 154 0 16 -7 39
-15 52 -12 17 -15 54 -16 146 0 106 2 127 19 149 10 14 29 27 41 29 23 4 28
20 8 28 -9 3 -12 22 -11 56 2 61 22 81 101 99 69 16 116 2 172 -51 23 -22 66
-58 96 -81 57 -43 85 -88 85 -137 0 -38 9 -64 21 -56 5 3 9 17 9 32 0 15 3 37
6 50 6 21 10 22 51 16 43 -6 45 -6 34 14 -6 11 -24 23 -40 27 -28 6 -69 51
-57 62 3 3 21 -5 41 -17 45 -28 79 -21 100 20 12 24 15 58 11 177 -2 82 -5
150 -6 153 -5 16 -19 -42 -19 -84 -1 -32 -6 -53 -16 -60 -15 -10 -23 -53 -24
-120 -1 -42 -14 -24 -18 26 -3 23 -11 60 -18 82 -20 58 -9 177 17 184 20 5 24
22 7 39 -12 12 -7 102 10 178 29 124 45 181 58 200 7 11 13 30 13 42 0 13 3
23 8 23 4 0 18 24 31 53 12 28 27 59 32 67 5 8 13 25 18 37 6 11 15 24 20 28
6 3 11 13 11 22 0 22 75 113 111 135 16 10 43 31 58 47 16 16 36 31 45 33 37
7 12 23 -32 20 -51 -3 -114 -44 -121 -77 -2 -10 -11 -26 -22 -34 -22 -19 -105
-136 -120 -171 -7 -14 -29 -59 -50 -102 -42 -83 -96 -240 -124 -360 -10 -43
-22 -78 -26 -78 -7 0 -115 51 -154 72 -11 6 -27 14 -35 18 -23 11 -32 70 -37
225 -3 91 0 153 7 176 7 19 10 46 8 60 -4 23 -5 23 -12 -6 -4 -16 -13 -39 -19
-50 -8 -13 -12 -81 -13 -195 -1 -100 -6 -176 -11 -177 -11 -4 -53 98 -53 129
0 10 -5 29 -12 41 -6 12 -15 42 -19 67 -4 25 -12 65 -18 90 -6 25 -13 111 -17
191 -7 151 -4 173 43 307 18 51 60 93 88 90 16 -2 21 4 23 29 3 26 8 32 30 35
15 2 26 8 25 13 -4 19 -28 15 -90 -15z m-173 -564 c0 -19 7 -50 15 -69 8 -20
14 -46 14 -59 -1 -13 9 -61 21 -108 12 -47 25 -102 27 -123 5 -36 3 -38 -17
-35 -18 2 -26 14 -37 53 -27 94 -53 393 -34 380 6 -3 11 -21 11 -39z m105
-436 c4 -6 -5 -10 -20 -10 -15 0 -24 4 -20 10 3 6 12 10 20 10 8 0 17 -4 20
-10z m323 -290 c17 -16 22 -32 22 -74 0 -29 7 -73 15 -96 18 -52 19 -60 1 -60
-15 0 -76 58 -76 73 0 5 -13 26 -30 47 -16 21 -30 48 -30 61 0 13 -7 33 -15
43 -15 20 -20 58 -9 69 8 7 93 -36 122 -63z m-177 14 c15 -18 35 -51 45 -74
22 -52 41 -86 53 -96 11 -9 11 -13 1 -19 -8 -5 -16 -2 -22 9 -5 9 -14 16 -20
16 -16 0 -98 69 -98 82 0 6 -11 26 -25 44 -14 18 -25 37 -25 43 0 18 76 13 91
-5z"/>
<path d="M4416 5851 c-9 -16 -22 -31 -31 -34 -19 -8 -20 -65 0 -86 12 -14 12
-33 3 -121 -6 -60 -7 -144 -3 -195 4 -49 8 -121 9 -159 l1 -69 -45 -24 c-24
-13 -48 -30 -53 -38 -4 -8 -15 -15 -22 -15 -8 0 -15 -7 -15 -15 0 -10 10 -15
29 -15 16 0 43 -3 60 -6 26 -6 31 -11 31 -36 0 -16 7 -40 16 -53 9 -14 13 -32
10 -41 -9 -23 2 -54 19 -54 8 0 22 12 32 26 l17 27 31 -36 c16 -19 41 -56 55
-81 24 -44 24 -46 7 -81 -29 -62 -42 -220 -28 -353 14 -128 37 -194 82 -238
24 -23 36 -26 102 -27 59 -1 80 2 95 16 10 9 23 17 29 17 5 0 23 19 40 43 17
23 42 53 55 67 22 22 49 61 95 135 23 37 25 45 19 60 -8 22 -26 18 -26 -5 0
-11 -7 -23 -15 -26 -8 -3 -17 -14 -20 -25 -4 -12 -14 -18 -28 -16 -14 1 -23
-4 -25 -16 -2 -11 -11 -27 -20 -36 -10 -10 -34 -39 -56 -65 -42 -52 -110 -88
-148 -79 -36 9 -78 42 -78 62 0 9 -5 22 -11 28 -14 14 -24 140 -15 177 9 35
32 33 51 -4 19 -37 19 -56 0 -64 -26 -10 -16 -26 17 -26 25 0 42 10 77 48 74
76 117 235 75 276 -21 21 -36 20 -68 -5 l-27 -22 -34 33 c-18 18 -35 41 -38
51 -4 15 0 19 24 19 24 0 29 4 29 24 0 24 23 56 41 56 5 0 9 7 9 16 0 11 5 14
16 10 9 -3 31 -6 49 -6 39 0 85 -35 111 -83 10 -18 20 -65 23 -107 6 -70 23
-99 29 -48 8 70 14 92 22 78 4 -8 11 -33 15 -55 l7 -40 20 25 c29 36 20 100
-27 191 -52 103 -86 136 -148 146 -53 9 -84 36 -58 52 7 5 21 6 31 4 10 -3 42
2 72 10 29 9 75 18 102 20 34 4 56 13 75 31 15 15 30 23 34 19 4 -3 7 -29 7
-58 0 -28 5 -56 11 -62 6 -6 14 -26 18 -44 4 -18 13 -35 20 -37 11 -4 13 11 7
79 -4 46 -12 106 -17 133 -5 27 -9 77 -9 112 0 53 -3 65 -22 78 -29 20 -41 10
-33 -28 3 -17 8 -49 11 -71 l5 -40 -25 40 c-14 22 -26 47 -26 56 0 8 -15 30
-34 48 -29 28 -38 32 -68 26 -25 -5 -38 -2 -47 9 -21 25 -6 43 51 61 29 10 54
19 56 20 9 8 -20 45 -34 45 -27 0 -73 -32 -84 -59 -24 -56 -53 -76 -170 -114
-63 -21 -124 -42 -135 -47 -35 -15 -100 -34 -109 -32 -4 2 -15 -3 -22 -9 -24
-20 -31 -1 -43 121 -11 107 -10 119 8 175 24 71 27 95 9 77 -7 -7 -18 -12 -25
-12 -20 0 -18 143 2 160 8 7 15 24 15 39 0 14 6 38 14 53 10 19 11 29 3 37
-19 19 -46 12 -61 -18z m342 -823 c21 -21 13 -38 -34 -68 -26 -16 -52 -40 -58
-52 -20 -40 -48 -34 -79 17 -16 24 -27 50 -25 56 4 13 123 57 159 58 14 1 30
-4 37 -11z m-307 -71 c-1 -12 -15 -9 -19 4 -3 6 1 10 8 8 6 -3 11 -8 11 -12z
m197 -292 c-2 -11 -11 -21 -20 -23 -14 -3 -18 4 -18 31 0 18 3 37 7 41 11 11
34 -26 31 -49z m60 -7 c17 -17 15 -45 -3 -52 -8 -3 -15 -15 -15 -26 0 -30 -18
-60 -35 -60 -21 0 -20 64 1 81 9 7 13 21 10 34 -9 34 17 48 42 23z"/>
<path d="M3264 5536 c-8 -22 3 -33 18 -18 9 9 9 15 0 24 -9 9 -13 7 -18 -6z"/>
<path d="M3244 5482 c-20 -13 -44 -57 -44 -78 0 -12 -6 -35 -14 -51 -20 -41
-39 -104 -32 -110 13 -13 36 9 36 35 0 15 7 37 15 48 8 10 15 26 15 34 0 8 12
37 26 64 24 45 23 75 -2 58z"/>
<path d="M4016 5085 c-3 -9 -3 -29 1 -43 l6 -27 8 29 c9 34 -4 70 -15 41z"/>
<path d="M5622 4954 c6 -52 4 -71 -7 -87 -17 -24 -20 -57 -5 -57 5 0 13 12 16
28 4 15 13 36 19 47 33 54 25 135 -14 135 -16 0 -17 -6 -9 -66z"/>
<path d="M6417 4951 c-2 -10 -1 -25 4 -32 6 -10 9 -4 9 19 0 36 -5 42 -13 13z"/>
<path d="M4790 4825 c0 -14 5 -25 10 -25 6 0 10 11 10 25 0 14 -4 25 -10 25
-5 0 -10 -11 -10 -25z"/>
<path d="M5067 4554 c-10 -11 -8 -54 2 -54 14 0 25 40 14 51 -5 5 -12 6 -16 3z"/>
<path d="M5849 4503 c-20 -21 -45 -54 -57 -73 -12 -19 -33 -48 -47 -64 -27
-31 -32 -46 -15 -46 12 0 60 49 60 60 0 4 10 18 23 31 38 39 87 106 87 118 0
20 -15 12 -51 -26z"/>
<path d="M3554 4505 c-12 -8 -38 -41 -59 -74 -23 -36 -47 -61 -59 -63 -24 -4
-36 -43 -24 -76 5 -14 4 -31 -2 -43 -16 -29 4 -59 39 -59 16 0 34 -7 41 -16
21 -24 79 -14 95 16 28 54 34 78 39 155 7 95 -2 143 -30 161 -17 12 -23 11
-40 -1z"/>
<path d="M2602 4399 c2 -7 10 -15 17 -17 8 -3 12 1 9 9 -2 7 -10 15 -17 17 -8
3 -12 -1 -9 -9z"/>
<path d="M4147 4144 c-4 -4 -7 -14 -7 -21 0 -8 -15 -29 -33 -48 -25 -26 -38
-52 -50 -104 -9 -38 -17 -79 -17 -90 0 -12 -6 -34 -14 -49 -7 -15 -16 -58 -20
-97 -4 -38 -12 -102 -18 -142 -15 -89 -6 -112 59 -153 36 -23 59 -30 97 -30
28 -1 62 -7 76 -15 14 -8 52 -14 88 -15 71 0 122 27 122 65 0 11 5 26 12 33
10 9 9 15 -3 27 -12 13 -24 13 -68 5 -71 -13 -180 -13 -220 1 -25 9 -38 23
-52 56 -19 45 -26 152 -11 167 7 8 26 90 42 185 6 36 17 63 35 81 22 23 24 29
13 41 -22 22 -29 49 -17 71 11 20 0 45 -14 32z"/>
<path d="M4245 3023 c-16 -2 -40 -9 -53 -15 -17 -9 -25 -9 -34 0 -19 19 -44
14 -96 -18 -27 -16 -52 -30 -56 -30 -4 0 -21 -13 -38 -30 -16 -16 -36 -30 -44
-30 -8 0 -14 -7 -14 -15 0 -17 60 -21 89 -5 41 21 326 51 491 50 91 -1 173 -1
183 0 14 0 18 7 15 28 -2 20 -13 32 -45 48 -37 19 -58 21 -205 21 -89 -1 -176
-2 -193 -4z"/>
</g>
</svg>
